<svg width="1053" height="1063" viewBox="0 0 1053 1063" fill="none" xmlns="http://www.w3.org/2000/svg">
<path d="M13.0071 1013.44C10.5738 1015.58 10.271 1019.28 12.4585 1021.67C36.5863 1048.06 72.0775 1062.64 113.4 1062.64C176.4 1062.64 221.76 1023.04 221.76 967.96V790C221.76 786.686 219.074 784 215.76 784H167.37C164.802 784 162.72 786.082 162.72 788.65V801.428C162.72 801.803 162.242 801.963 162.017 801.662V801.662C162.006 801.647 161.994 801.634 161.98 801.62C148.658 788.312 125.988 780.4 101.52 780.4C43.56 780.4 0 822.52 0 879.04C0 936.28 42.48 976.6 101.88 976.6C128.766 976.6 150.297 968.39 161.853 954.458C161.947 954.345 162.085 954.28 162.231 954.28V954.28C162.501 954.28 162.72 954.499 162.72 954.769V967.96C162.72 992.8 142.2 1010.44 113.4 1010.44C88.9285 1010.44 72.8853 1003.26 54.8059 984.541C52.5232 982.178 48.776 981.947 46.3096 984.118L13.0071 1013.44ZM159.48 888.4C159.48 898.12 154.8 906.76 145.8 913.6C136.8 920.44 125.64 923.68 112.32 923.68C81.72 923.68 62.28 906.4 62.28 879.04C62.28 852.04 82.08 834.4 112.68 834.4C138.24 834.4 159.48 850.96 159.48 869.68V888.4Z" fill="black"/>
<path d="M244.833 879.4C243.753 937.36 292.713 982.72 355.713 981.64C418.713 982.72 467.673 937.36 466.593 879.4C467.673 821.44 418.713 776.08 355.713 777.16C292.713 776.08 243.753 821.44 244.833 879.4ZM404.313 879.4C404.313 907.12 384.873 927.28 355.713 927.28C326.553 927.28 307.113 907.12 307.113 879.4C307.113 850.96 326.553 831.52 355.713 831.52C384.873 831.52 404.313 851.68 404.313 879.4Z" fill="black"/>
<path d="M444.792 1055.8C444.792 1059.11 447.478 1061.8 450.792 1061.8H481.872C535.512 1061.8 557.832 1040.2 557.832 980.2V790C557.832 786.686 555.146 784 551.832 784H501.552C498.238 784 495.552 786.686 495.552 790V979.48C495.552 998.8 489.792 1004.2 476.472 1004.2H450.792C447.478 1004.2 444.792 1006.89 444.792 1010.2V1055.8Z" fill="black"/>
<path d="M582.623 879.76C582.623 941.32 625.823 981.64 692.423 981.64C729.185 981.64 757.257 971.341 782.422 949.526C784.868 947.405 785.053 943.703 782.924 941.264L756.282 910.736C754.044 908.172 750.13 907.995 747.554 910.219C730.318 925.1 712.754 932.68 694.583 932.68C667.474 932.68 649.912 922.264 645.269 904.545C644.38 901.15 647.194 898.12 650.704 898.12H791.903C795.217 898.12 797.903 895.434 797.903 892.12V879.76C797.903 821.8 752.903 777.16 690.623 777.16C629.783 776.08 581.543 822.52 582.623 879.76ZM651.355 857.08C647.741 857.08 644.904 853.872 646.068 850.45C651.516 834.437 668.76 824.32 691.343 824.32C714.656 824.32 730.887 833.952 736.014 850.452C737.083 853.893 734.245 857.08 730.641 857.08H651.355Z" fill="black"/>
<path d="M824.143 968.8C824.143 972.114 826.829 974.8 830.143 974.8H880.423C883.737 974.8 886.423 972.114 886.423 968.8V927.594C886.423 925.8 887.226 924.1 888.612 922.96L918.588 898.313C918.74 898.188 918.93 898.12 919.127 898.12V898.12C919.389 898.12 919.637 898.241 919.798 898.449L977.142 972.474C978.278 973.941 980.029 974.8 981.885 974.8H1039.81C1044.85 974.8 1047.65 968.948 1044.47 965.025L964.262 865.945C962.215 863.416 962.556 859.717 965.031 857.605L1038.92 794.564C1043.16 790.945 1040.6 784 1035.03 784H968.25C966.789 784 965.378 784.533 964.283 785.499L887.291 853.349C887.196 853.434 887.073 853.48 886.946 853.48V853.48C886.657 853.48 886.423 853.246 886.423 852.957V718C886.423 714.686 883.737 712 880.423 712H830.143C826.829 712 824.143 714.686 824.143 718V968.8Z" fill="black"/>
<path d="M397.367 341.714C397.367 270.96 454.94 213.583 526.012 213.583C597.06 213.583 654.657 270.936 654.657 341.714C654.657 412.516 597.084 469.869 526.037 469.869C454.965 469.869 397.367 412.492 397.367 341.738" fill="#00AA13"/>
<path d="M525.988 0.0489983C336.561 0.0489983 183 153.022 183 341.738C183 483.392 268.869 604.32 393.545 656.944C402.313 660.629 411.789 662.322 421.289 661.9C430.79 661.479 440.079 658.955 448.486 654.509C456.893 650.063 464.208 643.806 469.904 636.19C475.6 628.575 479.534 619.79 481.424 610.469C484.337 595.94 482.12 580.85 475.151 567.773C468.181 554.697 456.891 544.443 443.205 538.76V538.736C365.935 506.47 311.62 430.45 311.62 341.738C311.62 223.775 407.583 128.155 526.012 128.155C644.441 128.155 740.429 223.775 740.429 341.738C740.429 430.425 686.114 506.47 608.819 538.711V538.76C595.131 544.447 583.841 554.708 576.875 567.791C569.909 580.875 567.699 595.97 570.622 610.501C573.545 625.032 581.42 638.099 592.903 647.471C604.386 656.844 618.766 661.941 633.588 661.893C642.111 661.841 650.544 660.152 658.43 656.92C783.106 604.295 869 483.343 869 341.714C869 152.973 715.415 0 525.988 0" fill="#00AA13"/>
</svg>
