<svg width="40" height="40" viewBox="0 0 40 40" fill="none" xmlns="http://www.w3.org/2000/svg">
<circle cx="20" cy="20" r="20" fill="#ED2739"/>
<path d="M7 12.5V19.5C7 21.5 8.5 23.5 11 25L11.5 30C11.5 30.5 11.8 31.5 13 31.5C14.2 31.5 14.5 30.5 14.5 30C14.6667 29.1667 15 27 15 25C18 24 18.5 22 19 19.5C19.4 17.5 19 13 18.5 11C18.3917 10.5669 17.8 10 17 10C16.2 10 16 11 16 11.5C16 12 16.5 15 16.5 16C16.5 17 16.5 17.5 15.5 17.5C14.3 17.5 14.5 16.5 14.5 16V11C14.5 10.3333 14.2 9 13 9C11.8 9 11.5 10.3333 11.5 11V16C11.5 16.5 11.7 17.5 10.5 17.5C9.3 17.5 9.5 16.5 9.5 16C9.5 15.5 10 13.5 10 12.5C10 11.5 9.7 10 8.5 10C7.3 10 7 11.6667 7 12.5Z" fill="white"/>
<path d="M27.5 9C24.3 9 22.5 14.3333 22 17C21.5 20 22 21 22.5 22C22.9 22.8 24.6666 24.3333 25.5 25L26 30C26 30.5 26.3 31.5 27.5 31.5C28.7 31.5 29 30.5 29 30L29.5 25L32.5 22C33.7 20.8 33.3333 18.1667 33 17C32.5 14.3333 30.7 9 27.5 9Z" fill="white"/>
</svg>
