<svg width="16" height="16" viewBox="0 0 16 16" fill="none" xmlns="http://www.w3.org/2000/svg">
<circle cx="8" cy="8" r="8" fill="#D1E7EE"/>
<path fill-rule="evenodd" clip-rule="evenodd" d="M8.01061 1.59998C7.21061 1.59998 6.74395 2.13331 6.61061 2.39998C5.54395 4.93331 3.37061 10.48 3.21061 12.4C3.05061 14.32 4.74395 14.4 5.61061 14.2L8.01061 13L10.4106 14.2C11.2773 14.4 12.9706 14.32 12.8106 12.4C12.6506 10.48 10.4773 4.93331 9.41061 2.39998C9.27728 2.13331 8.81061 1.59998 8.01061 1.59998Z" fill="#38BBDA"/>
<path d="M12.4547 8.58832L11.5563 6.04268C11.4743 5.81046 11.6201 5.56045 11.866 5.54791C12.6672 5.50708 13.8062 5.68099 14.2 6.59998C14.6038 7.54215 13.7149 8.36166 12.9859 8.79658C12.7844 8.91682 12.5328 8.80962 12.4547 8.58832Z" fill="#38BBDA"/>
<path d="M3.44635 8.58832L4.34481 6.04268C4.42676 5.81046 4.28101 5.56045 4.03507 5.54791C3.23383 5.50708 2.0949 5.68099 1.70105 6.59998C1.29726 7.54215 2.18614 8.36166 2.91513 8.79658C3.11667 8.91682 3.36824 8.80962 3.44635 8.58832Z" fill="#38BBDA"/>
</svg>
