<svg width="40" height="40" viewBox="0 0 40 40" fill="none" xmlns="http://www.w3.org/2000/svg">
<circle cx="20" cy="20" r="20" fill="#00AA12"/>
<path d="M20.3393 9.49993C20.3393 10.6999 22.3393 10.6666 23.3393 10.4999C23.4018 10.6666 23.6894 11.7 24.3394 14.5C25.8394 23 22.8393 23.5 20.8394 24C18.8394 24.5 17.3394 20 18.8394 20C20.0394 20 21.006 19 21.3394 18.5C21.8394 16 21.8394 14.5 14.8394 14.5C6.83934 14.5 7.3394 16 6.3394 16.5C5.5394 16.9 6.33936 18 6.83935 18.5C6.50601 19.1667 5.33936 21 6.83935 21.5C9.83935 20.5 11.8393 20.5 14.3393 22C16.3393 23.2 16.506 26.5 16.3393 28H23.8393C23.6727 27.3333 23.5589 25.0075 25.3394 23C27.8392 20.1813 29.5 21 32 21C32.5 15.5 27.8393 12 26.3393 11C27.9393 11 27.3393 9.33333 26.8393 8.49999C26.1727 7.66666 24.5393 6.09999 23.3393 6.49999C22.1393 6.89999 22.506 8.33328 22.8393 8.99993C22.006 8.66659 20.3393 8.29993 20.3393 9.49993Z" fill="white"/>
<circle cx="29.8394" cy="27" r="4" fill="white"/>
<circle cx="10.8394" cy="27" r="4" fill="white"/>
</svg>
