<svg width="20" height="20" viewBox="0 0 20 20" fill="none" xmlns="http://www.w3.org/2000/svg">
<path d="M18.553 16.3289L15.2559 13.4842C16.3492 11.9082 16.7971 9.97318 16.5075 8.07705C16.2179 6.18091 15.2128 4.4678 13.6989 3.28995C12.185 2.11211 10.2774 1.55906 8.36823 1.74453C6.4591 1.93 4.69358 2.83989 3.43471 4.28711C2.17584 5.73432 1.5193 7.60886 1.60009 9.52528C1.68088 11.4417 2.49286 13.2543 3.86907 14.5905C5.24527 15.9266 7.08111 16.6847 8.99908 16.7088C10.917 16.7329 12.7714 16.0213 14.1808 14.7202L17.453 17.5666C17.5357 17.6391 17.6319 17.6945 17.7361 17.7297C17.8404 17.7648 17.9506 17.779 18.0603 17.7714C18.17 17.7637 18.2772 17.7344 18.3756 17.6852C18.4739 17.6359 18.5616 17.5677 18.6334 17.4844C18.7725 17.3189 18.8418 17.106 18.8268 16.8904C18.8118 16.6748 18.7136 16.4734 18.553 16.3289ZM9.51704 15.0448C8.3661 15.1249 7.21725 14.8619 6.21578 14.2891C5.2143 13.7163 4.40518 12.8594 3.89072 11.8267C3.37627 10.794 3.17959 9.63197 3.32556 8.48751C3.47153 7.34306 3.95359 6.26759 4.71079 5.39711C5.46798 4.52663 6.4663 3.90023 7.5795 3.59713C8.69269 3.29402 9.87077 3.32783 10.9648 3.69427C12.0587 4.0607 13.0195 4.74332 13.7255 5.65578C14.4316 6.56825 14.8512 7.66959 14.9313 8.82053C15.0387 10.3639 14.5286 11.8867 13.5132 13.054C12.4979 14.2213 11.0604 14.9374 9.51704 15.0448Z" fill="#1C1C1C"/>
</svg>
