<svg width="40" height="40" viewBox="0 0 40 40" fill="none" xmlns="http://www.w3.org/2000/svg">
<circle cx="20" cy="20" r="20" fill="#00AA12"/>
<circle cx="28.0575" cy="26" r="3" fill="white"/>
<circle cx="12.0575" cy="26" r="3" fill="white"/>
<path fill-rule="evenodd" clip-rule="evenodd" d="M7.55745 25.5C5.55741 26 4.0575 24.5 4.0575 23.5C4.0575 23.103 4.04293 22.6995 4.02847 22.2986C3.97645 20.8571 3.92565 19.4494 4.5575 18.5C5.17726 17.5687 7.12321 17.1485 7.55742 17.2209C8.2241 15.0542 10.2575 10.6209 13.0575 10.2209C15.8575 9.82086 20.5575 10.0542 22.5575 10.2209C23.5575 10.3875 26.1575 12.0209 28.5575 17.2209C31.5575 17.2209 35.0575 17.7209 35.5575 19.7209C35.9575 21.3209 36.0574 22.7209 35.5575 24.2209C35.0575 25.2209 34.1575 25.7209 32.5575 25.7209L32.5345 25.6291C32.0415 23.6536 31.504 21.5 28.0575 21.5C24.4575 21.5 23.5575 24.8333 23.5575 26.5H16.5575C16.7241 24.8333 16.0575 21.5 12.0575 21.5C8.05745 21.5 7.55745 24 7.55745 25.5ZM17 16.5V12.5H13.9424C11.9956 12.5 11.3667 15.0267 11.0272 16.3909L11 16.5H17ZM19.0576 12.5V16.5H25.0576C24.7243 15.1667 23.7576 12.5 22.5576 12.5H19.0576Z" fill="white"/>
</svg>
