<svg width="40" height="40" viewBox="0 0 40 40" fill="none" xmlns="http://www.w3.org/2000/svg">
<circle cx="20" cy="20" r="20" fill="#ED2739"/>
<path fill-rule="evenodd" clip-rule="evenodd" d="M9.23124 9.58846C8.43124 10.7885 9.89791 11.7551 10.7312 12.0885C11.7022 12.6505 11.9838 15.4207 12.457 20.077L12.5 20.5C12.8127 23.5719 15 24.8333 16 25C16.3994 25.02 16.8628 25.0465 17.372 25.0756L17.3728 25.0756C21.1138 25.2896 27.323 25.6447 28.7312 24.5885C30.3927 23.3424 31.019 19.6809 31.47 17.0438L31.4701 17.0436C31.562 16.5063 31.6466 16.0116 31.7312 15.5885C32.1312 13.5885 30.8979 13.0885 30.2312 13.0885C25.2312 12.9218 14.9312 12.5885 13.7312 12.5885C13.7312 9.58846 10.2312 8.08846 9.23124 9.58846ZM19.2312 15C19.7835 15 20.2312 15.4477 20.2312 16V21C20.2312 21.5523 19.7835 22 19.2312 22C18.6789 22 18.2312 21.5523 18.2312 21V16C18.2312 15.4477 18.6789 15 19.2312 15ZM24.7312 16C24.7312 15.4477 24.2835 15 23.7312 15C23.1789 15 22.7312 15.4477 22.7312 16V21C22.7312 21.5523 23.1789 22 23.7312 22C24.2835 22 24.7312 21.5523 24.7312 21V16Z" fill="white"/>
<circle cx="25.7312" cy="29" r="2" fill="white"/>
<circle cx="17.7312" cy="29" r="2" fill="white"/>
</svg>
