<svg width="40" height="40" viewBox="0 0 40 40" fill="none" xmlns="http://www.w3.org/2000/svg">
<circle cx="20" cy="20" r="20" fill="#00AA12"/>
<path fill-rule="evenodd" clip-rule="evenodd" d="M19.8749 8C17.3749 8 9.59859 13.0528 9.37498 13.5C8.875 14.5 8.87502 23 9.37498 24.5C9.72852 25.5607 17.875 31 19.375 31C21.375 31 30.3749 26 30.3749 24.5C30.3749 24.1311 30.4354 23.3387 30.5118 22.3386C30.7458 19.2725 31.129 14.254 30.3749 13.5C29.9664 13.0915 28.5564 12.0988 26.861 11.0674C23.4444 12.7683 17.5147 15.7427 17.1777 16.6912C17 17.1912 17 20 17 22L14.6777 19L13 20C13 18.3333 13 16 13.1776 14.5C13.2725 13.6983 19.4325 10.5423 22.9603 8.95451C21.7221 8.38487 20.6061 8 19.8749 8Z" fill="white"/>
</svg>
