<svg width="40" height="40" viewBox="0 0 40 40" fill="none" xmlns="http://www.w3.org/2000/svg">
<circle cx="20" cy="20" r="20" fill="white"/>
<path fill-rule="evenodd" clip-rule="evenodd" d="M20.0265 4C18.0265 4 16.8598 5.33333 16.5265 6C13.8598 12.3333 8.42646 26.2 8.02646 31C7.62646 35.8 11.8598 36 14.0265 35.5L20.0265 32.5L26.0265 35.5C28.1931 36 32.4265 35.8 32.0265 31C31.6265 26.2 26.1931 12.3333 23.5265 6C23.1931 5.33333 22.0265 4 20.0265 4Z" fill="#87027B"/>
<path d="M31.1368 21.4708L28.8906 15.1067C28.6857 14.5262 29.0501 13.9011 29.6649 13.8698C31.6681 13.7677 34.5154 14.2025 35.5 16.5C36.5095 18.8554 34.2873 20.9042 32.4648 21.9915C31.9609 22.2921 31.332 22.024 31.1368 21.4708Z" fill="#87027B"/>
<path d="M8.61579 21.4708L10.8619 15.1067C11.0668 14.5262 10.7024 13.9011 10.0876 13.8698C8.0845 13.7677 5.23718 14.2025 4.25256 16.5C3.24309 18.8554 5.46526 20.9042 7.28775 21.9915C7.7916 22.2921 8.42052 22.024 8.61579 21.4708Z" fill="#87027B"/>
</svg>
