<svg width="40" height="40" viewBox="0 0 40 40" fill="none" xmlns="http://www.w3.org/2000/svg">
<circle cx="20" cy="20" r="20" fill="#00AED5"/>
<path fill-rule="evenodd" clip-rule="evenodd" d="M11 11C11 8.79086 12.7909 7 15 7H25C27.2091 7 29 8.79086 29 11V28C29 30.2091 27.2091 32 25 32H15C12.7909 32 11 30.2091 11 28V11ZM14 12C14 10.8954 14.8954 10 16 10H24C25.1046 10 26 10.8954 26 12V22C26 23.1046 25.1046 24 24 24H16C14.8954 24 14 23.1046 14 22V12ZM20 30C21.1046 30 22 29.1046 22 28C22 26.8954 21.1046 26 20 26C18.8954 26 18 26.8954 18 28C18 29.1046 18.8954 30 20 30Z" fill="white"/>
<path d="M17 17.5L20 12V15.5H22.5L20 21V17.5H17Z" fill="white"/>
</svg>
